<svg width="94" height="94" viewBox="0 0 94 94" fill="none" xmlns="http://www.w3.org/2000/svg">
<rect width="93.1847" height="93.1847" rx="17" fill="#F0A202"/>
<path d="M62.9725 70.9805L59.1505 66.4304C66.6126 64.4284 69.5246 59.3324 69.5246 59.3324C60.0605 68.2505 34.2163 68.6145 24.2063 59.3324C24.2063 59.3324 26.7543 64.0644 34.3983 66.4304L30.2123 70.9805C17.4722 70.7985 12.5582 62.2444 12.5582 62.2444C12.5582 43.3163 20.9302 28.2101 20.9302 28.2101C29.4843 22.2041 37.3104 22.2041 37.3104 22.2041L37.8564 22.9321C27.3003 25.8441 22.7502 30.5762 22.7502 30.5762C35.1263 22.2041 60.6065 22.9321 70.6166 30.5762C70.7986 30.3942 64.6106 25.4801 54.9645 22.9321L55.8745 22.2041C55.8745 22.2041 63.7006 22.2041 72.2546 28.2101C72.2546 28.2101 80.6267 43.3163 80.6267 62.2444C80.6267 62.2444 75.7126 70.7985 62.9725 70.9805Z" fill="#F1F1F1"/>
<path d="M35.6723 56.7843C38.9894 56.7843 41.6784 53.9323 41.6784 50.4142C41.6784 46.8962 38.9894 44.0442 35.6723 44.0442C32.3553 44.0442 29.6663 46.8962 29.6663 50.4142C29.6663 53.9323 32.3553 56.7843 35.6723 56.7843Z" fill="#F0A202"/>
<path d="M56.7845 56.7843C60.1015 56.7843 62.7905 53.9323 62.7905 50.4142C62.7905 46.8962 60.1015 44.0442 56.7845 44.0442C53.4674 44.0442 50.7784 46.8962 50.7784 50.4142C50.7784 53.9323 53.4674 56.7843 56.7845 56.7843Z" fill="#F0A202"/>
</svg>
