<svg width="106" height="34" viewBox="0 0 106 34" fill="none" xmlns="http://www.w3.org/2000/svg">
<path d="M51.7755 31.1506C51.8126 31.3922 42.8677 25.5837 39.8931 21.4909C50.7284 24.2788 60.478 25.7696 69.8599 26.035C81.2734 26.9308 90.8044 26.1433 101.913 23.0913C98.604 15.6702 99.0146 12.0925 104 6.80128L102.899 5.08654C98.6803 5.35947 91.1966 7.96049 80.1193 12.6158C74.2734 14.1246 68.8606 15.0725 63.3101 15.5186C57.0695 16.0201 50.6549 15.8871 43.2549 15.2035C44.9417 11.9502 48.433 8.7088 53.8621 3.37179L52.6449 2C39.5766 8.09916 29.7049 11.942 20.7074 13.9716C13.7936 15.0641 7.71416 15.3324 1 15.2035V17.6041C6.36223 17.6278 15.6947 19.9659 24.417 24.8733C33.3148 30.8911 43.3124 33.6653 48.8773 32.8652C50.1177 32.3112 50.7668 31.9512 51.7755 31.1506Z" fill="#F1F1F1" stroke="#1F1F1F" stroke-width="2"/>
</svg>
