<svg width="1212" height="1056" viewBox="0 0 1212 1056" fill="none" xmlns="http://www.w3.org/2000/svg">
<path d="M443.742 604.654C451.449 592.841 459.756 580.63 468.564 568.321C477.372 556.011 486.18 544.297 494.888 533.179C482.551 520.192 471.584 505.988 462.158 490.79V490.79C462.158 490.79 447.845 464.583 437.836 441.155C431.731 426.86 399.101 322.029 424.624 230.204C464.661 85.8635 647.227 -15.1944 810.875 1.88022C839.201 5.15616 972.923 19.2526 1046.79 133.811C1116.05 241.123 1082.92 357.469 1074.92 382.883C1057.1 437.215 1024.84 485.776 981.53 523.45C921.65 576.719 845.811 609.045 765.634 615.475C761.875 621.565 759.295 628.299 758.027 635.329C756.582 643.139 756.582 651.145 758.027 658.955C762.231 688.737 764.533 694.792 765.634 710.576C767.072 719.221 767.072 728.04 765.634 736.685C761.33 753.858 746.617 774.408 731.904 772.918C719.793 771.727 711.885 756.142 706.681 744.626C701.554 733.116 698.408 720.835 697.372 708.293C694.716 690.217 694.112 671.903 695.571 653.694C696.471 641.644 698.21 629.67 700.775 617.857C691.767 617.857 682.859 617.261 674.451 616.666C627.219 613.687 581.566 598.64 541.931 572.987C520.411 588.81 505.347 611.784 499.492 637.711C499.492 651.907 499.492 666.202 499.492 680.497C499.492 682.185 499.492 683.773 500.393 685.361C502.051 691.399 501.644 697.812 499.235 703.596C496.826 709.38 492.552 714.209 487.081 717.327C483.978 718.419 457.054 727.254 443.041 713.157C438.701 707.981 435.955 701.674 435.134 694.991C431.867 678.012 432.106 660.552 435.835 643.668C437.675 630.517 440.316 617.489 443.742 604.654V604.654Z" fill="#C6C6C6"/>
<path d="M750.725 184.928C735.511 238.634 762.536 308.322 802.772 315.073C843.009 321.823 885.848 268.515 894.055 217.886C901.062 174.704 884.947 114.148 846.212 104.618C807.477 95.0882 763.236 141.051 750.725 184.928Z" fill="#F1F1F1"/>
<path d="M705.585 170.929C695.075 236.944 623.911 293.231 585.476 277.943C554.448 265.336 545.239 203.887 558.952 159.811C575.367 106.701 631.017 57.2635 669.052 70.4666C699.78 81.6842 711.49 133.603 705.585 170.929Z" fill="#F1F1F1"/>
<path d="M804.281 263.366C797.433 255.396 797.406 244.265 804.221 238.504C811.037 232.742 822.114 234.533 828.963 242.503C835.811 250.473 835.838 261.604 829.022 267.365C822.207 273.126 811.13 271.336 804.281 263.366Z" fill="#161616"/>
<path d="M603.983 234.575C597.134 226.605 597.107 215.474 603.923 209.713C610.739 203.951 621.816 205.742 628.664 213.712C635.513 221.682 635.54 232.813 628.724 238.574C621.909 244.335 610.831 242.545 603.983 234.575Z" fill="#161616"/>
<path d="M443.738 604.658C451.445 592.845 459.753 580.635 468.561 568.325C477.369 556.015 486.177 544.301 494.885 533.183C484.523 522.058 475.146 510.068 466.859 497.346C550.324 541.17 645.496 558.071 739.107 545.691C970.717 512.336 1079.42 302.08 1089.42 280.836C1089.76 315.41 1084.73 349.831 1074.51 382.887C1056.69 437.219 1024.43 485.78 981.126 523.454C921.352 576.643 845.667 608.964 765.631 615.479C761.871 621.57 759.291 628.303 758.024 635.333C756.578 643.143 756.578 651.149 758.024 658.959C762.228 688.741 764.53 694.796 765.631 710.58C767.068 719.225 767.068 728.044 765.631 736.689C761.327 753.863 746.613 774.412 731.9 772.923C719.789 771.731 711.882 756.146 706.677 744.63C701.55 733.12 698.404 720.839 697.369 708.297C694.713 690.221 694.108 671.907 695.567 653.698C696.468 641.648 698.207 629.674 700.772 617.861C691.763 617.861 682.855 617.266 674.448 616.67C627.215 613.691 581.563 598.644 541.927 572.991C520.407 588.814 505.344 611.788 499.489 637.715C499.489 651.911 499.489 666.206 499.489 680.501C499.489 682.189 499.489 683.777 500.39 685.366C502.048 691.404 501.64 697.816 499.231 703.6C496.823 709.384 492.548 714.213 487.078 717.331C483.975 718.423 457.05 727.258 443.037 713.161C438.697 707.985 435.952 701.678 435.13 694.995C431.864 678.016 432.102 660.556 435.831 643.672C437.672 630.521 440.312 617.493 443.738 604.658V604.658Z" fill="url(#paint0_radial_125_124)"/>
<path d="M646.117 784.654C638.41 772.841 630.102 760.63 621.294 748.321C612.486 736.011 603.678 724.297 594.97 713.179C607.307 700.192 618.274 685.988 627.7 670.79V670.79C627.7 670.79 642.013 644.583 652.022 621.155C658.128 606.86 690.757 502.029 665.234 410.204C625.198 265.864 442.632 164.806 278.983 181.88C250.658 185.156 116.936 199.253 43.069 313.811C-26.194 421.123 6.93615 537.469 14.9434 562.883C32.7601 617.215 65.0211 665.776 108.328 703.45C168.209 756.719 244.048 789.045 324.224 795.475C327.984 801.565 330.564 808.299 331.831 815.329C333.277 823.139 333.277 831.145 331.831 838.955C327.628 868.737 325.325 874.792 324.224 890.576C322.787 899.221 322.787 908.04 324.224 916.685C328.528 933.858 343.242 954.408 357.955 952.918C370.066 951.727 377.973 936.142 383.178 924.626C388.305 913.116 391.451 900.835 392.486 888.293C395.142 870.217 395.747 851.903 394.288 833.694C393.387 821.644 391.648 809.67 389.083 797.857C398.092 797.857 407 797.261 415.407 796.666C462.64 793.687 508.292 778.64 547.928 752.987C569.448 768.81 584.511 791.784 590.366 817.711C590.366 831.907 590.366 846.202 590.366 860.497C590.366 862.185 590.366 863.773 589.465 865.361C587.807 871.399 588.215 877.812 590.624 883.596C593.032 889.38 597.307 894.209 602.778 897.327C605.88 898.419 632.805 907.254 646.818 893.157C651.158 887.981 653.903 881.674 654.725 874.991C657.991 858.012 657.753 840.552 654.024 823.668C652.183 810.517 649.543 797.489 646.117 784.654V784.654Z" fill="#5FD655"/>
<path d="M339.134 364.928C354.347 418.634 327.323 488.322 287.086 495.073C246.85 501.823 204.011 448.515 195.803 397.886C188.797 354.704 204.912 294.148 243.647 284.618C282.382 275.088 326.622 321.051 339.134 364.928Z" fill="#F1F1F1"/>
<path d="M384.274 350.929C394.783 416.944 465.948 473.231 504.383 457.943C535.411 445.336 544.619 383.887 530.907 339.811C514.492 286.701 458.842 237.264 420.807 250.467C390.079 261.684 378.368 313.603 384.274 350.929Z" fill="#F1F1F1"/>
<path d="M285.577 443.366C292.426 435.396 292.453 424.265 285.637 418.504C278.822 412.742 267.744 414.533 260.896 422.503C254.047 430.473 254.021 441.604 260.836 447.365C267.652 453.126 278.729 451.336 285.577 443.366Z" fill="#161616"/>
<path d="M485.876 414.575C492.724 406.605 492.751 395.474 485.935 389.713C479.12 383.951 468.043 385.742 461.194 393.712C454.345 401.682 454.319 412.813 461.134 418.574C467.95 424.335 479.027 422.545 485.876 414.575Z" fill="#161616"/>
<path d="M646.121 784.658C638.414 772.845 630.106 760.635 621.298 748.325C612.49 736.015 603.682 724.301 594.974 713.183C605.336 702.058 614.712 690.068 623 677.346C539.535 721.17 444.363 738.071 350.752 725.691C119.142 692.336 10.443 482.08 0.433882 460.836C0.0944669 495.41 5.1246 529.831 15.3475 562.887C33.1641 617.219 65.4251 665.78 108.732 703.454C168.506 756.643 244.192 788.964 324.228 795.479C327.987 801.57 330.567 808.303 331.835 815.333C333.281 823.143 333.281 831.149 331.835 838.959C327.631 868.741 325.329 874.796 324.228 890.58C322.79 899.225 322.79 908.044 324.228 916.689C328.532 933.863 343.245 954.412 357.959 952.923C370.07 951.731 377.977 936.146 383.182 924.63C388.308 913.12 391.455 900.839 392.49 888.297C395.146 870.221 395.75 851.907 394.292 833.698C393.391 821.648 391.652 809.674 389.087 797.861C398.095 797.861 407.003 797.266 415.411 796.67C462.644 793.691 508.296 778.644 547.931 752.991C569.452 768.814 584.515 791.788 590.37 817.715C590.37 831.911 590.37 846.206 590.37 860.501C590.37 862.189 590.37 863.777 589.469 865.366C587.811 871.404 588.219 877.816 590.627 883.6C593.036 889.384 597.31 894.213 602.781 897.331C605.884 898.423 632.808 907.258 646.821 893.161C651.162 887.985 653.907 881.678 654.728 874.995C657.995 858.016 657.757 840.556 654.028 823.672C652.187 810.521 649.546 797.493 646.121 784.658V784.658Z" fill="url(#paint1_radial_125_124)"/>
<path d="M565.742 887.654C573.449 875.841 581.756 863.63 590.564 851.321C599.372 839.011 608.18 827.297 616.888 816.179C604.551 803.192 593.584 788.988 584.158 773.79V773.79C584.158 773.79 569.845 747.583 559.836 724.155C553.731 709.86 521.101 605.029 546.624 513.204C586.661 368.864 769.227 267.806 932.875 284.88C961.201 288.156 1094.92 302.253 1168.79 416.811C1238.05 524.123 1204.92 640.469 1196.92 665.883C1179.1 720.215 1146.84 768.776 1103.53 806.45C1043.65 859.719 967.811 892.045 887.634 898.475C883.875 904.565 881.295 911.299 880.027 918.329C878.582 926.139 878.582 934.145 880.027 941.955C884.231 971.737 886.533 977.792 887.634 993.576C889.072 1002.22 889.072 1011.04 887.634 1019.68C883.33 1036.86 868.617 1057.41 853.904 1055.92C841.793 1054.73 833.885 1039.14 828.681 1027.63C823.554 1016.12 820.408 1003.83 819.372 991.293C816.716 973.217 816.112 954.903 817.571 936.694C818.471 924.644 820.21 912.67 822.775 900.857C813.767 900.857 804.859 900.261 796.451 899.666C749.219 896.687 703.566 881.64 663.931 855.987C642.411 871.81 627.347 894.784 621.492 920.711C621.492 934.907 621.492 949.202 621.492 963.497C621.492 965.185 621.492 966.773 622.393 968.361C624.051 974.399 623.644 980.812 621.235 986.596C618.826 992.38 614.552 997.209 609.081 1000.33C605.978 1001.42 579.054 1010.25 565.041 996.157C560.701 990.981 557.955 984.674 557.134 977.991C553.867 961.012 554.106 943.552 557.835 926.668C559.675 913.517 562.316 900.489 565.742 887.654V887.654Z" fill="#FE008B"/>
<path d="M872.725 467.928C857.511 521.634 884.536 591.322 924.772 598.073C965.009 604.823 1007.85 551.515 1016.06 500.886C1023.06 457.704 1006.95 397.148 968.212 387.618C929.476 378.088 885.236 424.051 872.725 467.928Z" fill="#F1F1F1"/>
<path d="M827.585 453.929C817.075 519.944 745.911 576.231 707.476 560.943C676.448 548.336 667.239 486.887 680.952 442.811C697.367 389.701 753.017 340.264 791.052 353.467C821.78 364.684 833.49 416.603 827.585 453.929Z" fill="#F1F1F1"/>
<path d="M926.281 546.366C919.432 538.396 919.406 527.265 926.221 521.504C933.037 515.742 944.114 517.533 950.963 525.503C957.811 533.473 957.838 544.604 951.022 550.365C944.207 556.126 933.13 554.336 926.281 546.366Z" fill="#161616"/>
<path d="M725.983 517.575C719.134 509.605 719.107 498.474 725.923 492.713C732.739 486.951 743.816 488.742 750.664 496.712C757.513 504.682 757.54 515.813 750.724 521.574C743.909 527.335 732.831 525.545 725.983 517.575Z" fill="#161616"/>
<path d="M565.738 887.658C573.445 875.845 581.753 863.635 590.561 851.325C599.369 839.015 608.177 827.301 616.885 816.183C606.523 805.058 597.146 793.068 588.859 780.346C672.324 824.17 767.496 841.071 861.107 828.691C1092.72 795.336 1201.42 585.08 1211.42 563.836C1211.76 598.41 1206.73 632.831 1196.51 665.887C1178.69 720.219 1146.43 768.78 1103.13 806.454C1043.35 859.643 967.667 891.964 887.631 898.479C883.871 904.57 881.291 911.303 880.024 918.333C878.578 926.143 878.578 934.149 880.024 941.959C884.228 971.741 886.53 977.796 887.631 993.58C889.068 1002.22 889.068 1011.04 887.631 1019.69C883.327 1036.86 868.613 1057.41 853.9 1055.92C841.789 1054.73 833.882 1039.15 828.677 1027.63C823.55 1016.12 820.404 1003.84 819.369 991.297C816.713 973.221 816.108 954.907 817.567 936.698C818.468 924.648 820.207 912.674 822.772 900.861C813.763 900.861 804.855 900.266 796.448 899.67C749.215 896.691 703.563 881.644 663.927 855.991C642.407 871.814 627.344 894.788 621.489 920.715C621.489 934.911 621.489 949.206 621.489 963.501C621.489 965.189 621.489 966.777 622.39 968.366C624.048 974.404 623.64 980.816 621.231 986.6C618.823 992.384 614.548 997.213 609.078 1000.33C605.975 1001.42 579.05 1010.26 565.037 996.161C560.697 990.985 557.952 984.678 557.13 977.995C553.864 961.016 554.102 943.556 557.831 926.672C559.672 913.521 562.312 900.493 565.738 887.658V887.658Z" fill="url(#paint2_radial_125_124)"/>
<defs>
<radialGradient id="paint0_radial_125_124" cx="0" cy="0" r="1" gradientUnits="userSpaceOnUse" gradientTransform="translate(733.101 309.625) rotate(180) scale(583.73 578.949)">
<stop stop-color="#010001" stop-opacity="0"/>
<stop offset="1" stop-color="#969696"/>
</radialGradient>
<radialGradient id="paint1_radial_125_124" cx="0" cy="0" r="1" gradientUnits="userSpaceOnUse" gradientTransform="translate(356.758 489.625) scale(583.73 578.949)">
<stop stop-color="#010001" stop-opacity="0"/>
<stop offset="1" stop-color="#969696"/>
</radialGradient>
<radialGradient id="paint2_radial_125_124" cx="0" cy="0" r="1" gradientUnits="userSpaceOnUse" gradientTransform="translate(855.101 592.625) rotate(180) scale(583.73 578.949)">
<stop stop-color="#010001" stop-opacity="0"/>
<stop offset="1" stop-color="#969696"/>
</radialGradient>
</defs>
</svg>
