<svg width="417" height="323" viewBox="0 0 417 323" fill="none" xmlns="http://www.w3.org/2000/svg">
<g clip-path="url(#clip0_483_1878)">
<path d="M126.193 222.019C129.01 217.701 132.046 213.238 135.266 208.739C138.485 204.239 141.704 199.957 144.887 195.893C140.378 191.146 136.369 185.954 132.924 180.399C132.924 180.399 127.693 170.819 124.034 162.256C121.803 157.03 109.876 118.711 119.205 85.1465C133.839 32.3857 200.569 -4.55401 260.384 1.68728C270.738 2.88473 319.615 8.03741 346.614 49.912C371.929 89.1378 359.82 131.666 356.896 140.955C350.382 160.815 338.591 178.566 322.761 192.337C300.874 211.808 273.154 223.624 243.848 225.975C242.474 228.201 241.531 230.662 241.068 233.232C240.539 236.087 240.539 239.013 241.068 241.868C242.604 252.754 243.446 254.968 243.848 260.737C244.374 263.897 244.374 267.121 243.848 270.281C242.275 276.558 236.897 284.07 231.519 283.525C227.093 283.09 224.202 277.393 222.3 273.183C220.426 268.976 219.276 264.487 218.898 259.903C217.927 253.295 217.706 246.601 218.239 239.945C218.568 235.54 219.204 231.163 220.141 226.845C216.849 226.845 213.593 226.628 210.52 226.41C193.256 225.321 176.569 219.821 162.082 210.444C154.216 216.228 148.71 224.626 146.57 234.103C146.57 239.292 146.57 244.517 146.57 249.742C146.57 250.359 146.57 250.94 146.899 251.52C147.505 253.727 147.357 256.071 146.476 258.186C145.596 260.3 144.033 262.065 142.034 263.205C140.9 263.604 131.059 266.833 125.937 261.68C124.35 259.788 123.347 257.483 123.047 255.04C121.852 248.834 121.94 242.452 123.303 236.28C123.975 231.473 124.941 226.711 126.193 222.019Z" fill="#5FD655"/>
<path d="M126.191 222.021C129.008 217.703 132.045 213.24 135.264 208.74C138.484 204.24 141.703 199.958 144.886 195.895C141.099 191.828 137.671 187.445 134.642 182.795C165.15 198.814 199.936 204.992 234.152 200.467C318.808 188.274 358.54 111.419 362.196 103.654C362.32 116.292 360.481 128.874 356.746 140.957C350.232 160.817 338.441 178.567 322.613 192.338C300.765 211.78 273.101 223.595 243.847 225.976C242.473 228.203 241.53 230.664 241.066 233.233C240.538 236.088 240.538 239.015 241.066 241.869C242.603 252.756 243.444 254.969 243.847 260.739C244.372 263.899 244.372 267.122 243.847 270.282C242.274 276.56 236.896 284.071 231.518 283.527C227.091 283.091 224.201 277.394 222.299 273.185C220.425 268.978 219.275 264.488 218.896 259.904C217.926 253.297 217.704 246.602 218.238 239.946C218.567 235.542 219.203 231.165 220.14 226.847C216.847 226.847 213.591 226.629 210.518 226.412C193.254 225.323 176.568 219.823 162.08 210.446C154.215 216.229 148.709 224.627 146.569 234.104C146.569 239.293 146.569 244.518 146.569 249.744C146.569 250.361 146.569 250.941 146.898 251.522C147.504 253.729 147.355 256.073 146.475 258.187C145.594 260.301 144.032 262.066 142.033 263.206C140.898 263.605 131.057 266.835 125.935 261.682C124.349 259.79 123.345 257.485 123.045 255.042C121.851 248.835 121.938 242.453 123.301 236.282C123.974 231.475 124.939 226.712 126.191 222.021Z" fill="url(#paint0_radial_483_1878)"/>
<path d="M210.163 325.019C207.346 320.701 204.31 316.238 201.09 311.739C197.871 307.239 194.651 302.957 191.468 298.893C195.978 294.146 199.986 288.954 203.432 283.399C203.432 283.399 208.663 273.819 212.322 265.256C214.553 260.03 226.48 221.711 217.151 188.147C202.517 135.386 135.787 98.4462 75.9715 104.687C65.6184 105.885 16.7415 111.038 -10.2578 152.912C-35.5742 192.138 -23.4648 234.666 -20.538 243.955C-14.0258 263.815 -2.23403 281.566 13.5951 295.337C35.4823 314.808 63.2024 326.624 92.5076 328.975C93.8819 331.201 94.825 333.662 95.2881 336.232C95.8166 339.087 95.8166 342.013 95.2881 344.868C93.7518 355.754 92.91 357.968 92.5076 363.737C91.9824 366.897 91.9824 370.121 92.5076 373.281C94.0808 379.558 99.4589 387.07 104.837 386.525C109.263 386.09 112.153 380.393 114.056 376.183C115.93 371.976 117.08 367.487 117.458 362.903C118.429 356.295 118.65 349.601 118.117 342.945C117.787 338.54 117.152 334.163 116.214 329.845C119.507 329.845 122.763 329.628 125.836 329.41C143.1 328.321 159.787 322.821 174.274 313.444C182.14 319.228 187.646 327.626 189.786 337.103C189.786 342.292 189.786 347.517 189.786 352.742C189.786 353.359 189.786 353.94 189.456 354.52C188.85 356.727 188.999 359.071 189.88 361.186C190.76 363.3 192.323 365.065 194.322 366.205C195.456 366.604 205.298 369.833 210.419 364.68C212.006 362.789 213.009 360.483 213.31 358.04C214.503 351.834 214.416 345.452 213.053 339.28C212.38 334.473 211.415 329.711 210.163 325.019Z" fill="#F0A202"/>
<path d="M238.399 68.5968C232.838 88.2279 242.716 113.701 257.422 116.169C272.13 118.636 287.788 99.1504 290.787 80.6439C293.349 64.8596 287.458 42.7245 273.3 39.241C259.142 35.7576 242.972 52.5584 238.399 68.5968Z" fill="#F1F1F1"/>
<path d="M221.899 63.4798C218.058 87.6103 192.047 108.185 177.998 102.597C166.657 97.9884 163.291 75.527 168.303 59.4159C174.303 40.0025 194.644 21.9316 208.546 26.7578C219.778 30.8581 224.058 49.836 221.899 63.4798Z" fill="#F1F1F1"/>
<path d="M257.974 97.2684C255.471 94.3551 255.461 90.2864 257.952 88.1805C260.443 86.0744 264.492 86.729 266.996 89.6423C269.499 92.5556 269.508 96.6243 267.017 98.7301C264.526 100.836 260.477 100.182 257.974 97.2684Z" fill="#161616"/>
<path d="M184.763 86.7442C182.259 83.8309 182.249 79.7622 184.741 77.6564C187.232 75.5502 191.281 76.2049 193.784 79.1181C196.287 82.0314 196.297 86.1001 193.806 88.2059C191.315 90.3118 187.266 89.6575 184.763 86.7442Z" fill="#161616"/>
<path d="M97.9573 171.597C103.518 191.228 93.6403 216.701 78.9332 219.169C64.2265 221.636 48.5683 202.15 45.5682 183.644C43.0074 167.86 48.8976 145.725 63.0557 142.241C77.2138 138.758 93.3841 155.558 97.9573 171.597Z" fill="#F1F1F1"/>
<path d="M114.457 166.48C118.298 190.61 144.309 211.185 158.358 205.597C169.699 200.988 173.065 178.527 168.053 162.416C162.053 143.002 141.712 124.932 127.81 129.758C116.578 133.858 112.298 152.836 114.457 166.48Z" fill="#F1F1F1"/>
<path d="M78.3816 200.268C80.885 197.355 80.8949 193.286 78.4035 191.181C75.9126 189.074 71.8635 189.729 69.3604 192.642C66.857 195.556 66.8475 199.624 69.3385 201.73C71.8298 203.836 75.8786 203.182 78.3816 200.268Z" fill="#161616"/>
<path d="M151.593 189.744C154.096 186.831 154.106 182.762 151.615 180.657C149.124 178.55 145.075 179.205 142.572 182.118C140.068 185.032 140.059 189.1 142.55 191.206C145.041 193.312 149.09 192.658 151.593 189.744Z" fill="#161616"/>
<path d="M210.165 325.021C207.348 320.703 204.311 316.24 201.091 311.74C197.872 307.24 194.653 302.958 191.47 298.895C195.257 294.828 198.684 290.445 201.714 285.795C171.206 301.814 136.42 307.992 102.204 303.467C17.5477 291.274 -22.1831 214.419 -25.8415 206.654C-25.9656 219.292 -24.127 231.874 -20.3904 243.957C-13.8783 263.817 -2.08649 281.567 13.7427 295.338C35.5908 314.78 63.2549 326.595 92.509 328.976C93.8829 331.203 94.8259 333.664 95.2894 336.233C95.8179 339.088 95.8179 342.015 95.2894 344.869C93.7528 355.756 92.9114 357.969 92.509 363.739C91.9834 366.899 91.9834 370.122 92.509 373.282C94.0821 379.56 99.4599 387.071 104.838 386.527C109.265 386.091 112.155 380.394 114.057 376.185C115.931 371.978 117.081 367.488 117.46 362.904C118.43 356.297 118.651 349.602 118.118 342.946C117.789 338.542 117.153 334.165 116.216 329.847C119.508 329.847 122.764 329.629 125.837 329.412C143.102 328.323 159.788 322.823 174.275 313.446C182.141 319.229 187.647 327.627 189.787 337.104C189.787 342.293 189.787 347.518 189.787 352.744C189.787 353.361 189.787 353.941 189.458 354.522C188.852 356.729 189.001 359.073 189.881 361.187C190.761 363.301 192.324 365.066 194.323 366.206C195.457 366.605 205.299 369.835 210.42 364.682C212.007 362.79 213.01 360.485 213.311 358.042C214.505 351.835 214.418 345.453 213.055 339.282C212.382 334.475 211.416 329.712 210.165 325.021Z" fill="url(#paint1_radial_483_1878)"/>
<path d="M180.785 345.464C183.602 341.146 186.639 336.683 189.858 332.184C193.078 327.684 196.297 323.402 199.48 319.338C194.97 314.591 190.962 309.399 187.517 303.844C187.517 303.844 182.285 294.264 178.627 285.701C176.395 280.475 164.469 242.156 173.798 208.592C188.431 155.831 255.161 118.891 314.977 125.132C325.33 126.33 374.206 131.483 401.206 173.357C426.522 212.583 414.412 255.111 411.488 264.4C404.975 284.26 393.183 302.011 377.353 315.782C355.466 335.253 327.746 347.069 298.441 349.42C297.067 351.646 296.124 354.107 295.66 356.677C295.132 359.532 295.132 362.458 295.66 365.313C297.197 376.199 298.038 378.413 298.441 384.182C298.966 387.342 298.966 390.566 298.441 393.724C296.867 400.004 291.49 407.515 286.112 406.971C281.685 406.536 278.795 400.837 276.893 396.63C275.019 392.423 273.869 387.93 273.49 383.348C272.519 376.74 272.298 370.046 272.832 363.39C273.161 358.985 273.796 354.609 274.734 350.291C271.441 350.291 268.185 350.073 265.112 349.855C247.848 348.766 231.162 343.266 216.675 333.889C208.809 339.673 203.303 348.071 201.163 357.548C201.163 362.737 201.163 367.962 201.163 373.187C201.163 373.804 201.163 374.385 201.492 374.965C202.098 377.172 201.949 379.517 201.069 381.631C200.188 383.745 198.626 385.51 196.626 386.651C195.492 387.049 185.651 390.277 180.529 385.126C178.943 383.234 177.939 380.928 177.639 378.485C176.445 372.279 176.532 365.897 177.895 359.725C178.568 354.918 179.533 350.156 180.785 345.464Z" fill="#FE008B"/>
<path d="M292.991 192.042C287.43 211.673 297.308 237.146 312.015 239.614C326.722 242.081 342.381 222.595 345.382 204.089C347.94 188.305 342.052 166.17 327.893 162.686C313.734 159.203 297.564 176.003 292.991 192.042Z" fill="#F1F1F1"/>
<path d="M276.492 186.925C272.65 211.055 246.639 231.63 232.591 226.042C221.25 221.433 217.884 198.972 222.896 182.861C228.896 163.447 249.236 145.377 263.139 150.203C274.37 154.303 278.65 173.281 276.492 186.925Z" fill="#F1F1F1"/>
<path d="M312.566 220.713C310.063 217.8 310.054 213.731 312.545 211.626C315.036 209.519 319.085 210.174 321.588 213.087C324.091 216.001 324.101 220.069 321.61 222.175C319.119 224.281 315.07 223.627 312.566 220.713Z" fill="#161616"/>
<path d="M239.355 210.189C236.852 207.276 236.842 203.207 239.333 201.101C241.825 198.995 245.873 199.65 248.376 202.563C250.88 205.476 250.89 209.545 248.398 211.651C245.907 213.757 241.858 213.103 239.355 210.189Z" fill="#161616"/>
<path d="M180.784 345.466C183.601 341.148 186.637 336.685 189.857 332.185C193.076 327.685 196.296 323.404 199.479 319.34C195.691 315.273 192.264 310.89 189.235 306.24C219.742 322.259 254.529 328.437 288.745 323.912C373.402 311.719 413.133 234.864 416.788 227.099C416.912 239.737 415.074 252.319 411.338 264.402C404.825 284.262 393.033 302.012 377.207 315.783C355.357 335.226 327.693 347.04 298.439 349.421C297.065 351.648 296.122 354.109 295.659 356.679C295.13 359.533 295.13 362.46 295.659 365.315C297.196 376.201 298.037 378.414 298.439 384.184C298.965 387.342 298.965 390.566 298.439 393.728C296.866 400.004 291.488 407.515 286.11 406.971C281.684 406.536 278.794 400.841 276.891 396.63C275.017 392.423 273.867 387.934 273.489 383.349C272.518 376.742 272.297 370.047 272.83 363.391C273.16 358.987 273.795 354.61 274.733 350.292C271.44 350.292 268.184 350.074 265.111 349.857C247.847 348.768 231.16 343.268 216.673 333.891C208.807 339.674 203.302 348.072 201.161 357.549C201.161 362.738 201.161 367.964 201.161 373.189C201.161 373.806 201.161 374.386 201.491 374.967C202.097 377.174 201.948 379.518 201.067 381.632C200.187 383.746 198.624 385.512 196.625 386.651C195.491 387.049 185.649 390.281 180.528 385.127C178.941 383.235 177.938 380.93 177.637 378.487C176.444 372.28 176.531 365.898 177.894 359.727C178.567 354.92 179.532 350.157 180.784 345.466Z" fill="url(#paint2_radial_483_1878)"/>
</g>
<defs>
<radialGradient id="paint0_radial_483_1878" cx="0" cy="0" r="1" gradientUnits="userSpaceOnUse" gradientTransform="translate(231.957 114.177) rotate(180) scale(213.36 211.623)">
<stop stop-color="#010001" stop-opacity="0"/>
<stop offset="1" stop-color="#969696"/>
</radialGradient>
<radialGradient id="paint1_radial_483_1878" cx="0" cy="0" r="1" gradientUnits="userSpaceOnUse" gradientTransform="translate(104.399 217.177) scale(213.36 211.623)">
<stop stop-color="#010001" stop-opacity="0"/>
<stop offset="1" stop-color="#969696"/>
</radialGradient>
<radialGradient id="paint2_radial_483_1878" cx="0" cy="0" r="1" gradientUnits="userSpaceOnUse" gradientTransform="translate(286.549 237.622) rotate(180) scale(213.36 211.623)">
<stop stop-color="#010001" stop-opacity="0"/>
<stop offset="1" stop-color="#969696"/>
</radialGradient>
<clipPath id="clip0_483_1878">
<rect width="417" height="323" fill="white"/>
</clipPath>
</defs>
</svg>
