<svg width="135" height="124" viewBox="0 0 135 124" fill="none" xmlns="http://www.w3.org/2000/svg">
<g clip-path="url(#clip0_407_1617)">
<path d="M129.308 121.132C127.765 118.765 126.103 116.319 124.34 113.853C122.577 111.387 120.814 109.04 119.072 106.813C121.541 104.211 123.735 101.366 125.622 98.3209V98.3209C125.622 98.3209 128.486 93.0707 130.489 88.3774C131.711 85.5136 138.242 64.5128 133.134 46.1171C125.121 17.2012 88.5841 -3.04392 55.8331 0.376667C50.1642 1.03294 23.4025 3.85692 8.61941 26.8067C-5.24221 48.3047 1.38814 71.6125 2.99063 76.7036C6.55629 87.5881 13.0127 97.3164 21.6798 104.864C33.6637 115.535 48.8414 122.011 64.8872 123.299C65.6395 124.519 66.1558 125.868 66.4095 127.277C66.6989 128.841 66.6989 130.445 66.4095 132.01C65.5682 137.976 65.1075 139.189 64.8872 142.351C64.5995 144.083 64.5995 145.85 64.8872 147.581C65.7485 151.022 68.6931 155.139 71.6377 154.84C74.0615 154.602 75.6439 151.479 76.6856 149.172C77.7116 146.866 78.3413 144.406 78.5485 141.894C79.08 138.273 79.2009 134.604 78.909 130.956C78.7288 128.542 78.3807 126.143 77.8674 123.777C79.6702 123.777 81.453 123.657 83.1356 123.538C92.5883 122.941 101.725 119.927 109.657 114.788C113.964 117.958 116.978 122.56 118.15 127.754C118.15 130.598 118.15 133.462 118.15 136.325C118.15 136.663 118.15 136.982 117.97 137.3C117.638 138.509 117.72 139.794 118.202 140.953C118.684 142.112 119.539 143.079 120.634 143.703C121.255 143.922 126.643 145.692 129.448 142.868C130.317 141.831 130.866 140.568 131.03 139.229C131.684 135.827 131.636 132.33 130.89 128.947C130.522 126.313 129.993 123.703 129.308 121.132V121.132Z" fill="#C6C6C6"/>
<path d="M67.8709 37.047C70.9157 47.806 65.5073 61.7668 57.4547 63.1191C49.4021 64.4714 40.8288 53.792 39.1862 43.6496C37.784 34.9987 41.0091 22.8675 48.7611 20.9583C56.5132 19.0492 65.367 28.2569 67.8709 37.047Z" fill="#F1F1F1"/>
<path d="M76.9048 34.2425C79.0081 47.4675 93.2503 58.7435 100.942 55.6809C107.152 53.1552 108.995 40.845 106.251 32.0151C102.965 21.3755 91.8281 11.4717 84.2162 14.1167C78.0667 16.3639 75.723 26.7649 76.9048 34.2425Z" fill="#F1F1F1"/>
<path d="M57.1527 52.7605C58.5233 51.1639 58.5287 48.934 57.1646 47.7798C55.8006 46.6257 53.5838 46.9844 52.2132 48.581C50.8425 50.1776 50.8372 52.4075 52.2012 53.5617C53.5652 54.7158 55.7821 54.3572 57.1527 52.7605Z" fill="#161616"/>
<path d="M97.2385 46.9927C98.6091 45.3961 98.6145 43.1661 97.2505 42.012C95.8865 40.8578 93.6696 41.2165 92.299 42.8132C90.9284 44.4098 90.923 46.6397 92.287 47.7939C93.651 48.948 95.8679 48.5893 97.2385 46.9927Z" fill="#161616"/>
<path d="M129.308 121.132C127.766 118.766 126.103 116.319 124.341 113.853C122.578 111.387 120.815 109.041 119.072 106.813C121.146 104.585 123.023 102.183 124.681 99.6342C107.977 108.413 88.9305 111.799 70.1962 109.319C23.8439 102.637 2.08996 60.5161 0.0868396 56.2603C0.0189123 63.1866 1.02559 70.0821 3.0715 76.7043C6.63715 87.5888 13.0936 97.3171 21.7606 104.864C33.7232 115.52 48.8702 121.995 64.8879 123.3C65.6403 124.52 66.1566 125.869 66.4103 127.277C66.6996 128.842 66.6996 130.446 66.4103 132.01C65.569 137.977 65.1082 139.19 64.8879 142.352C64.6002 144.084 64.6002 145.85 64.8879 147.582C65.7492 151.023 68.6938 155.139 71.6384 154.841C74.0622 154.602 75.6447 151.48 76.6863 149.173C77.7123 146.867 78.342 144.407 78.5492 141.894C79.0807 138.273 79.2017 134.604 78.9098 130.956C78.7295 128.542 78.3815 126.144 77.8682 123.777C79.671 123.777 81.4537 123.658 83.1364 123.539C92.5891 122.942 101.725 119.927 109.658 114.788C113.965 117.958 116.979 122.56 118.151 127.755C118.151 130.598 118.151 133.462 118.151 136.326C118.151 136.664 118.151 136.982 117.971 137.3C117.639 138.51 117.72 139.795 118.202 140.953C118.685 142.112 119.54 143.08 120.635 143.704C121.256 143.923 126.644 145.693 129.449 142.869C130.317 141.832 130.867 140.568 131.031 139.229C131.685 135.828 131.637 132.33 130.891 128.948C130.522 126.313 129.994 123.703 129.308 121.132V121.132Z" fill="url(#paint0_radial_407_1617)"/>
</g>
<defs>
<radialGradient id="paint0_radial_407_1617" cx="0" cy="0" r="1" gradientUnits="userSpaceOnUse" gradientTransform="translate(71.3981 62.0275) scale(116.822 115.982)">
<stop stop-color="#010001" stop-opacity="0"/>
<stop offset="1" stop-color="#969696"/>
</radialGradient>
<clipPath id="clip0_407_1617">
<rect width="135" height="124" fill="white"/>
</clipPath>
</defs>
</svg>
