<svg width="73" height="58" viewBox="0 0 73 58" fill="none" xmlns="http://www.w3.org/2000/svg">
<g clip-path="url(#clip0_127_3)">
<path d="M11.3873 56.8108L12.8663 57.6247C31.9887 35.2305 43.6009 26.066 66.3102 16.1268L65.3109 10.4044C58.9596 12.1293 56.4734 11.7184 59.0056 1.85602L57.4489 2.12787C41.4828 20.9552 30.0146 28.6793 7.06597 36.6582L5.49004 39.8819C15.2032 40.5123 16.1086 44.5307 11.3873 56.8108Z" fill="#F1F1F1" stroke="black" stroke-width="3"/>
<path d="M2.5036 15.6614L2.24925 17.3314C29.8556 27.6373 42.4577 35.4161 59.6102 53.3663L64.6367 50.4642C63.351 46.8078 64.5455 44.9452 70.4875 41.6028L69.696 40.232C46.5247 31.6716 35.3242 23.5343 19.929 4.68689L16.3605 4.3101C17.5801 12.6677 15.4137 15.6859 2.5036 15.6614Z" fill="#F1F1F1" stroke="black" stroke-width="3"/>
</g>
<defs>
<clipPath id="clip0_127_3">
<rect width="73" height="58" fill="white"/>
</clipPath>
</defs>
</svg>
